<svg width="141" height="25" viewBox="0 0 141 25" fill="none" xmlns="http://www.w3.org/2000/svg">
<g filter="url(#filter0_d_37_29)">
<path d="M130.593 16.4068C128.801 16.4068 127.293 16.1813 126.068 15.7304C124.843 15.2794 124.051 14.5046 123.691 13.4058L127.067 12.3769C127.243 13.0247 127.641 13.5106 128.262 13.8345C128.882 14.1584 129.678 14.3204 130.65 14.3204C131.454 14.3204 132.078 14.2188 132.522 14.0155C132.966 13.8059 133.188 13.517 133.188 13.1486C133.188 12.6469 132.79 12.3261 131.993 12.1864C131.197 12.0467 130.179 11.8942 128.939 11.7291C127.385 11.5322 126.137 11.1797 125.196 10.6716C124.262 10.1572 123.795 9.32835 123.795 8.18513C123.795 7.06732 124.373 6.24484 125.529 5.7177C126.685 5.19055 128.2 4.92697 130.076 4.92697C131.905 4.92697 133.402 5.14926 134.566 5.59385C135.729 6.03208 136.476 6.78787 136.805 7.86122L133.417 8.87106C133.241 8.29311 132.855 7.83582 132.258 7.49921C131.66 7.16259 130.918 6.99429 130.03 6.99429C129.196 6.99429 128.579 7.09908 128.181 7.30867C127.791 7.51826 127.596 7.80724 127.596 8.17561C127.596 8.6583 127.974 8.97268 128.732 9.11876C129.49 9.25849 130.462 9.40456 131.649 9.55699C133.172 9.74118 134.443 10.0619 135.461 10.5192C136.487 10.9701 137 11.7672 137 12.9104C137 14.1616 136.445 15.0571 135.335 15.597C134.225 16.1368 132.644 16.4068 130.593 16.4068Z" fill="white"/>
</g>
<g filter="url(#filter1_d_37_29)">
<path d="M113.62 16.4354C113.084 16.4354 112.556 16.41 112.035 16.3592C111.522 16.3084 111.04 16.2131 110.588 16.0734C110.137 15.9273 109.739 15.7241 109.394 15.4637C109.05 15.2033 108.778 14.8667 108.579 14.4538C108.388 14.041 108.292 13.5361 108.292 12.9391C108.292 12.3611 108.388 11.8753 108.579 11.4815C108.778 11.0814 109.046 10.7543 109.383 10.5002C109.72 10.2462 110.11 10.0493 110.554 9.90956C110.998 9.76983 111.473 9.67456 111.978 9.62375C112.483 9.56659 112.996 9.53801 113.517 9.53801H117.811V9.09978C117.811 8.58533 117.689 8.17886 117.444 7.88035C117.206 7.58184 116.877 7.37225 116.456 7.25158C116.043 7.12456 115.576 7.06104 115.055 7.06104C114.581 7.06104 114.148 7.12138 113.758 7.24205C113.367 7.36273 113.038 7.55961 112.77 7.83271C112.51 8.10582 112.326 8.47101 112.219 8.9283L108.441 8.05183C108.579 7.48657 108.832 7.00706 109.199 6.61329C109.574 6.21316 110.049 5.88925 110.623 5.64155C111.205 5.3875 111.867 5.20332 112.609 5.089C113.36 4.96833 114.171 4.90799 115.044 4.90799C116.414 4.90799 117.597 5.04454 118.592 5.31764C119.587 5.59074 120.353 6.04485 120.889 6.67997C121.424 7.31509 121.692 8.17885 121.692 9.27126V16.3116H118.477L118.144 15.0159C118.052 15.1874 117.88 15.3589 117.627 15.5304C117.375 15.6955 117.049 15.8479 116.651 15.9877C116.261 16.121 115.809 16.229 115.296 16.3116C114.791 16.3941 114.232 16.4354 113.62 16.4354ZM114.493 14.4253C114.868 14.4253 115.239 14.3967 115.606 14.3395C115.982 14.2824 116.322 14.1998 116.628 14.0918C116.942 13.9838 117.203 13.8568 117.409 13.7107C117.616 13.5583 117.75 13.3932 117.811 13.2154L117.903 11.31H114.424C114.118 11.31 113.83 11.329 113.563 11.3672C113.295 11.3989 113.057 11.4688 112.851 11.5767C112.652 11.6847 112.495 11.8403 112.38 12.0436C112.265 12.2468 112.208 12.5135 112.208 12.8438C112.208 13.1804 112.269 13.4535 112.391 13.6631C112.521 13.8664 112.694 14.0251 112.908 14.1395C113.13 14.2474 113.375 14.3236 113.643 14.3681C113.918 14.4062 114.202 14.4253 114.493 14.4253Z" fill="white"/>
</g>
<g filter="url(#filter2_d_37_29)">
<path d="M102.34 16.3115V1.35443H106.21V16.3115H102.34Z" fill="white"/>
</g>
<g filter="url(#filter3_d_37_29)">
<path d="M95.8138 16.3115V1.35443H99.6835V16.3115H95.8138Z" fill="white"/>
</g>
<g filter="url(#filter4_d_37_29)">
<path d="M89.1304 16.3115V5.01275H93.0002V16.3115H89.1304ZM89.1304 1.62122H93.0002V3.86001H89.1304V1.62122Z" fill="white"/>
</g>
<g filter="url(#filter5_d_37_29)">
<path d="M66.8326 10.5859C66.8326 9.16322 66.6373 8.23277 66.2469 7.79454C65.8565 7.34996 65.313 7.12767 64.6164 7.12767C63.8049 7.12767 63.1619 7.36266 62.6872 7.83265C62.2126 8.29629 61.9753 8.82979 61.9753 9.43315L60.494 8.69959C60.494 7.63259 61.0069 6.73707 62.0327 6.01303C63.0585 5.28264 64.402 4.91745 66.0632 4.91745C67.8622 4.91745 69.0832 5.37791 69.7262 6.29884C70.3693 7.21341 70.6908 8.64243 70.6908 10.5859H66.8326ZM58.1285 16.3115V5.02225H61.1141L61.9868 6.97524V16.3115H58.1285Z" fill="white"/>
</g>
<g filter="url(#filter6_d_37_29)">
<path d="M52.0081 10.5859C52.0081 9.16322 51.8129 8.23277 51.4225 7.79454C51.0321 7.34996 50.4885 7.12767 49.7919 7.12767C48.9804 7.12767 48.3374 7.36266 47.8628 7.83265C47.3882 8.29629 47.1508 8.82979 47.1508 9.43315L45.6696 8.69959C45.6696 7.63259 46.1825 6.73707 47.2083 6.01303C48.2341 5.28264 49.5776 4.91745 51.2387 4.91745C53.0377 4.91745 54.2587 5.37791 54.9018 6.29884C55.5448 7.21341 55.8663 8.64243 55.8663 10.5859H52.0081ZM43.3041 16.3115V5.02225H46.2896L47.1623 6.97524V16.3115H43.3041Z" fill="white"/>
</g>
<g filter="url(#filter7_d_37_29)">
<path d="M34.5094 16.4068C32.0138 16.4068 30.2339 15.9082 29.1698 14.9111C28.1058 13.9076 27.5737 12.4754 27.5737 10.6145C27.5737 8.75997 28.1058 7.34365 29.1698 6.36557C30.2339 5.38113 32.0138 4.88892 34.5094 4.88892C36.9973 4.88892 38.7695 5.38113 39.826 6.36557C40.89 7.34365 41.4221 8.75997 41.4221 10.6145C41.4221 12.4754 40.89 13.9076 39.826 14.9111C38.7695 15.9082 36.9973 16.4068 34.5094 16.4068ZM34.5094 14.2347C35.3974 14.2347 36.1285 13.9997 36.7026 13.5297C37.2768 13.0597 37.5638 12.0943 37.5638 10.6336C37.5638 9.17915 37.2768 8.22012 36.7026 7.75648C36.1285 7.29284 35.3974 7.06102 34.5094 7.06102C33.6137 7.06102 32.8788 7.29284 32.3047 7.75648C31.7305 8.22012 31.4435 9.17915 31.4435 10.6336C31.4435 12.0943 31.7305 13.0597 32.3047 13.5297C32.8788 13.9997 33.6137 14.2347 34.5094 14.2347Z" fill="white"/>
</g>
<g filter="url(#filter8_d_37_29)">
<path d="M22.6036 16.4544C21.3941 16.4544 20.3683 16.2448 19.5262 15.8256C18.6918 15.4001 18.2746 14.6348 18.2746 13.5297V7.22294H15.1627V5.02225H18.2746V2.44049H22.1443V5.02225H26.3241V7.22294H22.1443V12.8247C22.1443 13.4408 22.2974 13.8441 22.6036 14.0346C22.9175 14.2188 23.3577 14.3109 23.9242 14.3109C24.4906 14.3109 25.0456 14.2315 25.5892 14.0727V16.1877C24.6399 16.3655 23.6447 16.4544 22.6036 16.4544Z" fill="white"/>
</g>
<path d="M76.9837 16.2822L72.5283 0.780304H76.5014L79.8659 14.043H79.7855L83.15 0.780304H87.1116L82.6562 16.2822H76.9837Z" fill="white"/>
<path d="M7.00455 16.374C4.26397 16.374 2.4114 15.8803 1.44684 14.8928C0.482281 13.9052 0 12.5043 0 10.69H3.91566C3.91566 12.0144 4.19508 12.8565 4.75391 13.2163C5.31274 13.5684 6.0553 13.7445 6.98159 13.7445C7.90022 13.7445 8.63895 13.6028 9.19778 13.3196C9.76427 13.0364 10.0475 12.6038 10.0475 12.022C10.0475 11.3407 9.66092 10.8737 8.88774 10.6211C8.12222 10.3685 7.06579 10.1082 5.71847 9.84029C3.58266 9.38098 2.09754 8.86042 1.26312 8.27862C0.428694 7.69682 0.0114829 6.74374 0.0114829 5.41938C0.0114829 4.11034 0.501419 2.98884 1.48129 2.0549C2.46882 1.12096 4.28694 0.653992 6.93566 0.653992C9.60734 0.653992 11.4293 1.16307 12.4015 2.18121C13.3814 3.19171 13.8713 4.55434 13.8713 6.26912H9.96714C9.96714 4.97538 9.67624 4.15627 9.09444 3.81178C8.51264 3.45964 7.77773 3.28357 6.88972 3.28357C5.95578 3.28357 5.20557 3.43285 4.63908 3.7314C4.07259 4.0223 3.78935 4.43568 3.78935 4.97155C3.78935 5.69115 4.17977 6.17725 4.9606 6.42988C5.74909 6.67485 6.80934 6.93512 8.14136 7.21071C10.3461 7.66237 11.8542 8.15996 12.6656 8.70349C13.4847 9.23935 13.8943 10.1656 13.8943 11.4823C13.8943 12.8373 13.4158 13.9933 12.4589 14.9502C11.502 15.8994 9.68389 16.374 7.00455 16.374Z" fill="white"/>
<defs>
<filter id="filter0_d_37_29" x="119.691" y="4.92697" width="21.3087" height="19.4798" filterUnits="userSpaceOnUse" color-interpolation-filters="sRGB">
<feFlood flood-opacity="0" result="BackgroundImageFix"/>
<feColorMatrix in="SourceAlpha" type="matrix" values="0 0 0 0 0 0 0 0 0 0 0 0 0 0 0 0 0 0 127 0" result="hardAlpha"/>
<feOffset dy="4"/>
<feGaussianBlur stdDeviation="2"/>
<feComposite in2="hardAlpha" operator="out"/>
<feColorMatrix type="matrix" values="0 0 0 0 0 0 0 0 0 0 0 0 0 0 0 0 0 0 0.25 0"/>
<feBlend mode="normal" in2="BackgroundImageFix" result="effect1_dropShadow_37_29"/>
<feBlend mode="normal" in="SourceGraphic" in2="effect1_dropShadow_37_29" result="shape"/>
</filter>
<filter id="filter1_d_37_29" x="104.292" y="4.90799" width="21.4005" height="19.5274" filterUnits="userSpaceOnUse" color-interpolation-filters="sRGB">
<feFlood flood-opacity="0" result="BackgroundImageFix"/>
<feColorMatrix in="SourceAlpha" type="matrix" values="0 0 0 0 0 0 0 0 0 0 0 0 0 0 0 0 0 0 127 0" result="hardAlpha"/>
<feOffset dy="4"/>
<feGaussianBlur stdDeviation="2"/>
<feComposite in2="hardAlpha" operator="out"/>
<feColorMatrix type="matrix" values="0 0 0 0 0 0 0 0 0 0 0 0 0 0 0 0 0 0 0.25 0"/>
<feBlend mode="normal" in2="BackgroundImageFix" result="effect1_dropShadow_37_29"/>
<feBlend mode="normal" in="SourceGraphic" in2="effect1_dropShadow_37_29" result="shape"/>
</filter>
<filter id="filter2_d_37_29" x="98.3402" y="1.35443" width="11.8698" height="22.9571" filterUnits="userSpaceOnUse" color-interpolation-filters="sRGB">
<feFlood flood-opacity="0" result="BackgroundImageFix"/>
<feColorMatrix in="SourceAlpha" type="matrix" values="0 0 0 0 0 0 0 0 0 0 0 0 0 0 0 0 0 0 127 0" result="hardAlpha"/>
<feOffset dy="4"/>
<feGaussianBlur stdDeviation="2"/>
<feComposite in2="hardAlpha" operator="out"/>
<feColorMatrix type="matrix" values="0 0 0 0 0 0 0 0 0 0 0 0 0 0 0 0 0 0 0.25 0"/>
<feBlend mode="normal" in2="BackgroundImageFix" result="effect1_dropShadow_37_29"/>
<feBlend mode="normal" in="SourceGraphic" in2="effect1_dropShadow_37_29" result="shape"/>
</filter>
<filter id="filter3_d_37_29" x="91.8138" y="1.35443" width="11.8698" height="22.9571" filterUnits="userSpaceOnUse" color-interpolation-filters="sRGB">
<feFlood flood-opacity="0" result="BackgroundImageFix"/>
<feColorMatrix in="SourceAlpha" type="matrix" values="0 0 0 0 0 0 0 0 0 0 0 0 0 0 0 0 0 0 127 0" result="hardAlpha"/>
<feOffset dy="4"/>
<feGaussianBlur stdDeviation="2"/>
<feComposite in2="hardAlpha" operator="out"/>
<feColorMatrix type="matrix" values="0 0 0 0 0 0 0 0 0 0 0 0 0 0 0 0 0 0 0.25 0"/>
<feBlend mode="normal" in2="BackgroundImageFix" result="effect1_dropShadow_37_29"/>
<feBlend mode="normal" in="SourceGraphic" in2="effect1_dropShadow_37_29" result="shape"/>
</filter>
<filter id="filter4_d_37_29" x="85.1304" y="1.62122" width="11.8698" height="22.6903" filterUnits="userSpaceOnUse" color-interpolation-filters="sRGB">
<feFlood flood-opacity="0" result="BackgroundImageFix"/>
<feColorMatrix in="SourceAlpha" type="matrix" values="0 0 0 0 0 0 0 0 0 0 0 0 0 0 0 0 0 0 127 0" result="hardAlpha"/>
<feOffset dy="4"/>
<feGaussianBlur stdDeviation="2"/>
<feComposite in2="hardAlpha" operator="out"/>
<feColorMatrix type="matrix" values="0 0 0 0 0 0 0 0 0 0 0 0 0 0 0 0 0 0 0.25 0"/>
<feBlend mode="normal" in2="BackgroundImageFix" result="effect1_dropShadow_37_29"/>
<feBlend mode="normal" in="SourceGraphic" in2="effect1_dropShadow_37_29" result="shape"/>
</filter>
<filter id="filter5_d_37_29" x="54.1285" y="4.91745" width="20.5623" height="19.394" filterUnits="userSpaceOnUse" color-interpolation-filters="sRGB">
<feFlood flood-opacity="0" result="BackgroundImageFix"/>
<feColorMatrix in="SourceAlpha" type="matrix" values="0 0 0 0 0 0 0 0 0 0 0 0 0 0 0 0 0 0 127 0" result="hardAlpha"/>
<feOffset dy="4"/>
<feGaussianBlur stdDeviation="2"/>
<feComposite in2="hardAlpha" operator="out"/>
<feColorMatrix type="matrix" values="0 0 0 0 0 0 0 0 0 0 0 0 0 0 0 0 0 0 0.25 0"/>
<feBlend mode="normal" in2="BackgroundImageFix" result="effect1_dropShadow_37_29"/>
<feBlend mode="normal" in="SourceGraphic" in2="effect1_dropShadow_37_29" result="shape"/>
</filter>
<filter id="filter6_d_37_29" x="39.3041" y="4.91745" width="20.5623" height="19.394" filterUnits="userSpaceOnUse" color-interpolation-filters="sRGB">
<feFlood flood-opacity="0" result="BackgroundImageFix"/>
<feColorMatrix in="SourceAlpha" type="matrix" values="0 0 0 0 0 0 0 0 0 0 0 0 0 0 0 0 0 0 127 0" result="hardAlpha"/>
<feOffset dy="4"/>
<feGaussianBlur stdDeviation="2"/>
<feComposite in2="hardAlpha" operator="out"/>
<feColorMatrix type="matrix" values="0 0 0 0 0 0 0 0 0 0 0 0 0 0 0 0 0 0 0.25 0"/>
<feBlend mode="normal" in2="BackgroundImageFix" result="effect1_dropShadow_37_29"/>
<feBlend mode="normal" in="SourceGraphic" in2="effect1_dropShadow_37_29" result="shape"/>
</filter>
<filter id="filter7_d_37_29" x="23.5737" y="4.88892" width="21.8483" height="19.5179" filterUnits="userSpaceOnUse" color-interpolation-filters="sRGB">
<feFlood flood-opacity="0" result="BackgroundImageFix"/>
<feColorMatrix in="SourceAlpha" type="matrix" values="0 0 0 0 0 0 0 0 0 0 0 0 0 0 0 0 0 0 127 0" result="hardAlpha"/>
<feOffset dy="4"/>
<feGaussianBlur stdDeviation="2"/>
<feComposite in2="hardAlpha" operator="out"/>
<feColorMatrix type="matrix" values="0 0 0 0 0 0 0 0 0 0 0 0 0 0 0 0 0 0 0.25 0"/>
<feBlend mode="normal" in2="BackgroundImageFix" result="effect1_dropShadow_37_29"/>
<feBlend mode="normal" in="SourceGraphic" in2="effect1_dropShadow_37_29" result="shape"/>
</filter>
<filter id="filter8_d_37_29" x="11.1627" y="2.44049" width="19.1614" height="22.0139" filterUnits="userSpaceOnUse" color-interpolation-filters="sRGB">
<feFlood flood-opacity="0" result="BackgroundImageFix"/>
<feColorMatrix in="SourceAlpha" type="matrix" values="0 0 0 0 0 0 0 0 0 0 0 0 0 0 0 0 0 0 127 0" result="hardAlpha"/>
<feOffset dy="4"/>
<feGaussianBlur stdDeviation="2"/>
<feComposite in2="hardAlpha" operator="out"/>
<feColorMatrix type="matrix" values="0 0 0 0 0 0 0 0 0 0 0 0 0 0 0 0 0 0 0.25 0"/>
<feBlend mode="normal" in2="BackgroundImageFix" result="effect1_dropShadow_37_29"/>
<feBlend mode="normal" in="SourceGraphic" in2="effect1_dropShadow_37_29" result="shape"/>
</filter>
</defs>
</svg>
