<svg width="145" height="20" viewBox="0 0 145 20" fill="none" xmlns="http://www.w3.org/2000/svg">
<path d="M80.3037 15.8541C77.5398 15.8541 75.6714 15.3561 74.6986 14.3602C73.7258 13.3642 73.2394 11.9514 73.2394 10.1216H77.1885C77.1885 11.4573 77.4703 12.3065 78.0339 12.6694C78.5975 13.0245 79.3464 13.2021 80.2806 13.2021C81.207 13.2021 81.9521 13.0593 82.5157 12.7736C83.087 12.488 83.3726 12.0517 83.3726 11.465C83.3726 10.7779 82.9827 10.3069 82.203 10.0521C81.4309 9.79735 80.3655 9.53485 79.0067 9.26463C76.8527 8.8014 75.3549 8.2764 74.5133 7.68964C73.6718 7.10288 73.251 6.14168 73.251 4.80603C73.251 3.48582 73.7451 2.35476 74.7334 1.41286C75.7293 0.470952 77.5629 0 80.2342 0C82.9287 0 84.7662 0.513415 85.7467 1.54025C86.7349 2.55935 87.229 3.93361 87.229 5.66301H83.2916C83.2916 4.35824 82.9982 3.53214 82.4114 3.18472C81.8247 2.82957 81.0835 2.652 80.1879 2.652C79.246 2.652 78.4894 2.80255 77.9181 3.10365C77.3468 3.39703 77.0611 3.81394 77.0611 4.35438C77.0611 5.08011 77.4548 5.57036 78.2423 5.82514C79.0376 6.07219 80.1069 6.33469 81.4502 6.61263C83.6737 7.06814 85.1947 7.56998 86.013 8.11813C86.8391 8.65857 87.2522 9.59275 87.2522 10.9207C87.2522 12.2872 86.7697 13.453 85.8046 14.4181C84.8395 15.3754 83.0059 15.8541 80.3037 15.8541Z" fill="white"/>
<path d="M7.06428 15.8541C4.30033 15.8541 2.43197 15.3561 1.45918 14.3602C0.486393 13.3642 0 11.9514 0 10.1216H3.94905C3.94905 11.4573 4.23085 12.3065 4.79445 12.6694C5.35804 13.0245 6.10694 13.2021 7.04112 13.2021C7.96758 13.2021 8.71261 13.0593 9.27621 12.7736C9.84753 12.488 10.1332 12.0517 10.1332 11.465C10.1332 10.7779 9.7433 10.3069 8.96353 10.0521C8.19148 9.79735 7.12604 9.53485 5.76723 9.26463C3.61321 8.8014 2.11542 8.2764 1.27389 7.68964C0.432349 7.10288 0.0115808 6.14168 0.0115808 4.80603C0.0115808 3.48582 0.505694 2.35476 1.49392 1.41286C2.48987 0.470952 4.32349 0 6.9948 0C9.68926 0 11.5267 0.513415 12.5073 1.54025C13.4955 2.55935 13.9896 3.93361 13.9896 5.66301H10.0521C10.0521 4.35824 9.75874 3.53214 9.17198 3.18472C8.58522 2.82957 7.84405 2.652 6.94847 2.652C6.00657 2.652 5.24996 2.80255 4.67864 3.10365C4.10732 3.39703 3.82166 3.81394 3.82166 4.35438C3.82166 5.08011 4.21541 5.57036 5.0029 5.82514C5.79811 6.07219 6.86741 6.33469 8.21078 6.61263C10.4343 7.06814 11.9552 7.56998 12.7736 8.11813C13.5997 8.65857 14.0128 9.59275 14.0128 10.9207C14.0128 12.2872 13.5302 13.453 12.5652 14.4181C11.6001 15.3754 9.76647 15.8541 7.06428 15.8541Z" fill="white"/>
<path d="M67.4025 9.93205C67.4025 8.52298 67.2056 7.60142 66.8119 7.16738C66.4181 6.72704 65.87 6.50687 65.1674 6.50687C64.349 6.50687 63.7005 6.73962 63.2218 7.20512C62.7432 7.66433 62.5038 8.19273 62.5038 8.79033L61.0099 8.06377C61.0099 7.00697 61.5272 6.12001 62.5617 5.40289C63.5963 4.67948 64.9512 4.31778 66.6266 4.31778C68.4409 4.31778 69.6723 4.77384 70.3209 5.68596C70.9694 6.5918 71.2936 8.00716 71.2936 9.93205H67.4025ZM58.6243 15.6029V4.42157H61.6353L62.5154 6.3559V15.6029H58.6243Z" fill="white"/>
<path d="M52.4515 9.93205C52.4515 8.52298 52.2546 7.60142 51.8609 7.16738C51.4671 6.72704 50.919 6.50687 50.2164 6.50687C49.3981 6.50687 48.7495 6.73962 48.2709 7.20512C47.7922 7.66433 47.5528 8.19273 47.5528 8.79033L46.0589 8.06377C46.0589 7.00697 46.5762 6.12001 47.6107 5.40289C48.6453 4.67948 50.0002 4.31778 51.6756 4.31778C53.4899 4.31778 54.7213 4.77384 55.3699 5.68596C56.0184 6.5918 56.3427 8.00716 56.3427 9.93205H52.4515ZM43.6733 15.6029V4.42157H46.6843L47.5644 6.3559V15.6029H43.6733Z" fill="white"/>
<path d="M34.8037 15.6973C32.2868 15.6973 30.4918 15.2035 29.4186 14.2159C28.3455 13.222 27.8089 11.8035 27.8089 9.96038C27.8089 8.12355 28.3455 6.72077 29.4186 5.75203C30.4918 4.777 32.2868 4.28949 34.8037 4.28949C37.3129 4.28949 39.1002 4.777 40.1656 5.75203C41.2388 6.72077 41.7753 8.12355 41.7753 9.96038C41.7753 11.8035 41.2388 13.222 40.1656 14.2159C39.1002 15.2035 37.3129 15.6973 34.8037 15.6973ZM34.8037 13.546C35.6993 13.546 36.4366 13.3132 37.0156 12.8477C37.5947 12.3822 37.8842 11.4261 37.8842 9.97925C37.8842 8.53872 37.5947 7.58886 37.0156 7.12965C36.4366 6.67044 35.6993 6.44084 34.8037 6.44084C33.9004 6.44084 33.1592 6.67044 32.5802 7.12965C32.0011 7.58886 31.7116 8.53872 31.7116 9.97925C31.7116 11.4261 32.0011 12.3822 32.5802 12.8477C33.1592 13.3132 33.9004 13.546 34.8037 13.546Z" fill="white"/>
<path d="M22.7964 15.7445C21.5766 15.7445 20.542 15.5369 19.6928 15.1217C18.8512 14.7003 18.4304 13.9423 18.4304 12.8477V6.60125H15.2921V4.42159H18.4304V1.8645H22.3332V4.42159H26.5486V6.60125H22.3332V12.1495C22.3332 12.7597 22.4876 13.1591 22.7964 13.3478C23.1129 13.5302 23.5569 13.6214 24.1282 13.6214C24.6995 13.6214 25.2593 13.5428 25.8074 13.3856V15.4803C24.8501 15.6564 23.8464 15.7445 22.7964 15.7445Z" fill="white"/>
<path d="M137.791 15.6973C135.984 15.6973 134.463 15.474 133.228 15.0274C131.992 14.5807 131.193 13.8133 130.831 12.725L134.235 11.706C134.413 12.3476 134.814 12.8288 135.44 13.1496C136.065 13.4705 136.868 13.6309 137.848 13.6309C138.659 13.6309 139.288 13.5302 139.736 13.3289C140.184 13.1213 140.408 12.8351 140.408 12.4703C140.408 11.9733 140.006 11.6556 139.203 11.5173C138.4 11.3789 137.374 11.2279 136.123 11.0643C134.556 10.8693 133.297 10.5202 132.348 10.017C131.406 9.50744 130.935 8.68653 130.935 7.55424C130.935 6.44711 131.518 5.63249 132.683 5.11038C133.849 4.58827 135.378 4.32721 137.269 4.32721C139.115 4.32721 140.624 4.54738 141.798 4.98771C142.971 5.42176 143.724 6.17033 144.056 7.23342L140.639 8.23361C140.462 7.66118 140.072 7.20826 139.47 6.87486C138.868 6.54147 138.119 6.37477 137.223 6.37477C136.382 6.37477 135.76 6.47856 135.359 6.68615C134.965 6.89373 134.768 7.17995 134.768 7.5448C134.768 8.02288 135.15 8.33426 135.914 8.47894C136.679 8.61733 137.659 8.76201 138.856 8.91299C140.392 9.09541 141.674 9.41308 142.701 9.866C143.735 10.3126 144.253 11.1021 144.253 12.2344C144.253 13.4736 143.693 14.3606 142.573 14.8953C141.454 15.4299 139.86 15.6973 137.791 15.6973Z" fill="white"/>
<path d="M119.69 15.6029L115.788 4.42157H119.864L123.06 14.348H122.25L125.4 4.42157H129.476L125.631 15.6029H119.69ZM116.795 20V17.8581C118.386 17.8518 119.575 17.7071 120.362 17.424C121.15 17.1473 121.705 16.5371 122.03 15.5935L125.631 15.6029C124.998 17.4083 123.956 18.5909 122.504 19.1508C121.061 19.7169 119.158 20 116.795 20Z" fill="white"/>
<path d="M106.537 15.7256C105.996 15.7256 105.463 15.7004 104.938 15.6501C104.421 15.5998 103.935 15.5054 103.479 15.3671C103.024 15.2224 102.622 15.0211 102.275 14.7632C101.927 14.5053 101.653 14.1719 101.453 13.763C101.26 13.3541 101.163 12.854 101.163 12.2627C101.163 11.6903 101.26 11.209 101.453 10.819C101.653 10.4227 101.924 10.0988 102.263 9.84714C102.603 9.59552 102.997 9.40051 103.444 9.26212C103.892 9.12373 104.371 9.02937 104.88 8.97905C105.39 8.92243 105.907 8.89413 106.432 8.89413H110.763V8.46008C110.763 7.95055 110.64 7.54796 110.393 7.2523C110.154 6.95665 109.822 6.74906 109.397 6.62954C108.98 6.50373 108.509 6.44083 107.984 6.44083C107.505 6.44083 107.069 6.50059 106.675 6.62011C106.282 6.73963 105.95 6.93463 105.68 7.20513C105.417 7.47562 105.232 7.83732 105.124 8.29024L101.314 7.42215C101.453 6.86229 101.707 6.38736 102.078 5.99735C102.456 5.60105 102.935 5.28023 103.514 5.0349C104.101 4.78328 104.769 4.60086 105.517 4.48763C106.274 4.36811 107.092 4.30835 107.973 4.30835C109.355 4.30835 110.547 4.4436 111.551 4.71409C112.555 4.98458 113.327 5.43435 113.867 6.0634C114.408 6.69245 114.678 7.54796 114.678 8.62992V15.6029H111.435L111.099 14.3197C111.007 14.4895 110.833 14.6594 110.578 14.8292C110.323 14.9928 109.995 15.1437 109.594 15.2821C109.2 15.4142 108.745 15.5212 108.227 15.6029C107.718 15.6847 107.154 15.7256 106.537 15.7256ZM107.417 13.7347C107.795 13.7347 108.169 13.7064 108.54 13.6497C108.918 13.5931 109.262 13.5114 109.571 13.4044C109.887 13.2975 110.15 13.1717 110.358 13.027C110.567 12.876 110.702 12.7125 110.763 12.5363L110.856 10.6492H107.347C107.038 10.6492 106.749 10.668 106.479 10.7058C106.208 10.7372 105.969 10.8064 105.761 10.9134C105.56 11.0203 105.402 11.1744 105.286 11.3757C105.17 11.577 105.112 11.8412 105.112 12.1683C105.112 12.5017 105.174 12.7722 105.297 12.9798C105.429 13.1811 105.602 13.3384 105.819 13.4516C106.042 13.5585 106.289 13.634 106.56 13.6781C106.838 13.7158 107.123 13.7347 107.417 13.7347Z" fill="white"/>
<path d="M96.0358 15.7445C94.816 15.7445 93.7814 15.5369 92.9322 15.1217C92.0907 14.7003 91.6699 13.9423 91.6699 12.8477V6.60125H88.5315V4.42159H91.6699V1.8645H95.5726V4.42159H99.788V6.60125H95.5726V12.1495C95.5726 12.7597 95.727 13.1591 96.0358 13.3478C96.3524 13.5302 96.7963 13.6214 97.3676 13.6214C97.939 13.6214 98.4987 13.5428 99.0469 13.3856V15.4803C98.0895 15.6564 97.0858 15.7445 96.0358 15.7445Z" fill="white"/>
</svg>
