<svg width="137" height="16" viewBox="0 0 137 16" fill="none" xmlns="http://www.w3.org/2000/svg">
<path d="M130.593 15.7528C128.801 15.7528 127.293 15.5273 126.068 15.0764C124.843 14.6255 124.051 13.8506 123.691 12.7519L127.067 11.723C127.243 12.3708 127.641 12.8567 128.262 13.1806C128.882 13.5045 129.678 13.6664 130.65 13.6664C131.454 13.6664 132.078 13.5648 132.522 13.3616C132.966 13.152 133.188 12.863 133.188 12.4946C133.188 11.9929 132.79 11.6722 131.993 11.5324C131.197 11.3927 130.179 11.2403 128.939 11.0751C127.385 10.8783 126.137 10.5258 125.196 10.0177C124.262 9.50322 123.795 8.67439 123.795 7.53117C123.795 6.41336 124.373 5.59088 125.529 5.06373C126.685 4.53659 128.2 4.27301 130.076 4.27301C131.905 4.27301 133.402 4.4953 134.566 4.93989C135.729 5.37812 136.476 6.13391 136.805 7.20726L133.417 8.2171C133.241 7.63914 132.855 7.18186 132.258 6.84524C131.66 6.50863 130.918 6.34032 130.03 6.34032C129.196 6.34032 128.579 6.44512 128.181 6.65471C127.791 6.8643 127.596 7.15328 127.596 7.52165C127.596 8.00434 127.974 8.31872 128.732 8.4648C129.49 8.60453 130.462 8.7506 131.649 8.90303C133.172 9.08722 134.443 9.40795 135.461 9.86524C136.487 10.3162 137 11.1132 137 12.2565C137 13.5076 136.445 14.4032 135.335 14.943C134.225 15.4829 132.644 15.7528 130.593 15.7528Z" fill="white"/>
<path d="M113.62 15.7814C113.084 15.7814 112.556 15.756 112.035 15.7052C111.522 15.6544 111.04 15.5591 110.588 15.4194C110.137 15.2733 109.739 15.0701 109.394 14.8097C109.05 14.5493 108.778 14.2127 108.579 13.7998C108.388 13.387 108.292 12.8821 108.292 12.2851C108.292 11.7071 108.388 11.2213 108.579 10.8275C108.778 10.4274 109.046 10.1003 109.383 9.84623C109.72 9.59218 110.11 9.39529 110.554 9.25556C110.998 9.11584 111.473 9.02057 111.978 8.96976C112.483 8.9126 112.996 8.88402 113.517 8.88402H117.811V8.44579C117.811 7.93134 117.689 7.52486 117.444 7.22636C117.206 6.92785 116.877 6.71826 116.456 6.59759C116.043 6.47056 115.576 6.40705 115.055 6.40705C114.581 6.40705 114.148 6.46739 113.758 6.58806C113.367 6.70873 113.038 6.90562 112.77 7.17872C112.51 7.45182 112.326 7.81702 112.219 8.2743L108.441 7.39784C108.579 6.83258 108.832 6.35307 109.199 5.95929C109.574 5.55917 110.049 5.23526 110.623 4.98756C111.205 4.73351 111.867 4.54933 112.609 4.43501C113.36 4.31433 114.171 4.254 115.044 4.254C116.414 4.254 117.597 4.39055 118.592 4.66365C119.587 4.93675 120.353 5.39086 120.889 6.02598C121.424 6.6611 121.692 7.52486 121.692 8.61727V15.6576H118.477L118.144 14.3619C118.052 14.5334 117.88 14.7049 117.627 14.8764C117.375 15.0415 117.049 15.1939 116.651 15.3337C116.261 15.467 115.809 15.575 115.296 15.6576C114.791 15.7401 114.232 15.7814 113.62 15.7814ZM114.493 13.7713C114.868 13.7713 115.239 13.7427 115.606 13.6855C115.982 13.6284 116.322 13.5458 116.628 13.4378C116.942 13.3299 117.203 13.2028 117.409 13.0568C117.616 12.9043 117.75 12.7392 117.811 12.5614L117.903 10.656H114.424C114.118 10.656 113.83 10.6751 113.563 10.7132C113.295 10.7449 113.057 10.8148 112.851 10.9228C112.652 11.0307 112.495 11.1863 112.38 11.3896C112.265 11.5928 112.208 11.8596 112.208 12.1898C112.208 12.5264 112.269 12.7995 112.391 13.0091C112.521 13.2124 112.694 13.3711 112.908 13.4855C113.13 13.5934 113.375 13.6696 113.643 13.7141C113.918 13.7522 114.202 13.7713 114.493 13.7713Z" fill="white"/>
<path d="M102.34 15.6575V0.700439H106.21V15.6575H102.34Z" fill="white"/>
<path d="M95.8138 15.6575V0.700439H99.6835V15.6575H95.8138Z" fill="white"/>
<path d="M89.1304 15.6575V4.35876H93.0002V15.6575H89.1304ZM89.1304 0.967224H93.0002V3.20602H89.1304V0.967224Z" fill="white"/>
<path d="M76.9837 15.6282L72.5283 0.126312H76.5014L79.8659 13.389H79.7855L83.15 0.126312H87.1116L82.6562 15.6282H76.9837Z" fill="white"/>
<path d="M66.8326 9.9319C66.8326 8.50923 66.6374 7.57878 66.247 7.14055C65.8566 6.69597 65.3131 6.47367 64.6164 6.47367C63.805 6.47367 63.1619 6.70867 62.6873 7.17866C62.2127 7.64229 61.9754 8.1758 61.9754 8.77916L60.4941 8.0456C60.4941 6.9786 61.007 6.08308 62.0328 5.35904C63.0586 4.62865 64.4021 4.26346 66.0633 4.26346C67.8623 4.26346 69.0833 4.72392 69.7263 5.64484C70.3693 6.55942 70.6909 7.98843 70.6909 9.9319H66.8326ZM58.1286 15.6575V4.36825H61.1141L61.9868 6.32125V15.6575H58.1286Z" fill="white"/>
<path d="M52.0081 9.9319C52.0081 8.50923 51.8129 7.57878 51.4225 7.14055C51.0321 6.69597 50.4885 6.47367 49.7919 6.47367C48.9804 6.47367 48.3374 6.70867 47.8628 7.17866C47.3882 7.64229 47.1508 8.1758 47.1508 8.77916L45.6696 8.0456C45.6696 6.9786 46.1825 6.08308 47.2083 5.35904C48.2341 4.62865 49.5776 4.26346 51.2387 4.26346C53.0377 4.26346 54.2587 4.72392 54.9018 5.64484C55.5448 6.55942 55.8663 7.98843 55.8663 9.9319H52.0081ZM43.3041 15.6575V4.36825H46.2896L47.1623 6.32125V15.6575H43.3041Z" fill="white"/>
<path d="M34.5094 15.7528C32.0138 15.7528 30.2339 15.2542 29.1698 14.2571C28.1058 13.2536 27.5737 11.8214 27.5737 9.96053C27.5737 8.10598 28.1058 6.68966 29.1698 5.71158C30.2339 4.72714 32.0138 4.23492 34.5094 4.23492C36.9973 4.23492 38.7695 4.72714 39.826 5.71158C40.89 6.68966 41.4221 8.10598 41.4221 9.96053C41.4221 11.8214 40.89 13.2536 39.826 14.2571C38.7695 15.2542 36.9973 15.7528 34.5094 15.7528ZM34.5094 13.5807C35.3974 13.5807 36.1285 13.3457 36.7026 12.8757C37.2768 12.4057 37.5638 11.4404 37.5638 9.97958C37.5638 8.52516 37.2768 7.56613 36.7026 7.10249C36.1285 6.63885 35.3974 6.40703 34.5094 6.40703C33.6137 6.40703 32.8788 6.63885 32.3047 7.10249C31.7305 7.56613 31.4435 8.52516 31.4435 9.97958C31.4435 11.4404 31.7305 12.4057 32.3047 12.8757C32.8788 13.3457 33.6137 13.5807 34.5094 13.5807Z" fill="white"/>
<path d="M22.6036 15.8004C21.3941 15.8004 20.3683 15.5908 19.5262 15.1716C18.6918 14.7461 18.2746 13.9808 18.2746 12.8757V6.56895H15.1627V4.36826H18.2746V1.7865H22.1443V4.36826H26.3241V6.56895H22.1443V12.1707C22.1443 12.7868 22.2974 13.1901 22.6036 13.3806C22.9175 13.5648 23.3577 13.6569 23.9242 13.6569C24.4906 13.6569 25.0456 13.5775 25.5892 13.4187V15.5337C24.6399 15.7115 23.6447 15.8004 22.6036 15.8004Z" fill="white"/>
<path d="M7.00455 15.7201C4.26397 15.7201 2.4114 15.2263 1.44684 14.2388C0.482281 13.2512 0 11.8503 0 10.036H3.91566C3.91566 11.3604 4.19508 12.2025 4.75391 12.5623C5.31274 12.9144 6.0553 13.0905 6.98159 13.0905C7.90022 13.0905 8.63895 12.9489 9.19778 12.6656C9.76427 12.3824 10.0475 11.9498 10.0475 11.368C10.0475 10.6867 9.66092 10.2198 8.88774 9.96713C8.12222 9.71451 7.06579 9.45423 5.71847 9.1863C3.58266 8.72698 2.09754 8.20643 1.26312 7.62463C0.428694 7.04283 0.0114829 6.08975 0.0114829 4.76539C0.0114829 3.45634 0.501419 2.33485 1.48129 1.40091C2.46882 0.46697 4.28694 0 6.93566 0C9.60734 0 11.4293 0.509074 12.4015 1.52722C13.3814 2.53771 13.8713 3.90035 13.8713 5.61513H9.96714C9.96714 4.32139 9.67624 3.50228 9.09444 3.15779C8.51264 2.80565 7.77773 2.62958 6.88972 2.62958C5.95578 2.62958 5.20557 2.77886 4.63908 3.07741C4.07259 3.36831 3.78935 3.78169 3.78935 4.31756C3.78935 5.03715 4.17977 5.52326 4.9606 5.77589C5.74909 6.02085 6.80934 6.28113 8.14136 6.55672C10.3461 7.00838 11.8542 7.50597 12.6656 8.04949C13.4847 8.58536 13.8943 9.51165 13.8943 10.8283C13.8943 12.1833 13.4158 13.3393 12.4589 14.2962C11.502 15.2454 9.68389 15.7201 7.00455 15.7201Z" fill="white"/>
</svg>
